<?xml version="1.0" encoding="utf-8" standalone="no"?>
<!DOCTYPE svg PUBLIC "-//W3C//DTD SVG 1.1//EN"
  "http://www.w3.org/Graphics/SVG/1.1/DTD/svg11.dtd">
<svg xmlns:xlink="http://www.w3.org/1999/xlink" width="513.72pt" height="449.16375pt" viewBox="0 0 513.72 449.16375" xmlns="http://www.w3.org/2000/svg" version="1.1">
 <metadata>
  <rdf:RDF xmlns:dc="http://purl.org/dc/elements/1.1/" xmlns:cc="http://creativecommons.org/ns#" xmlns:rdf="http://www.w3.org/1999/02/22-rdf-syntax-ns#">
   <cc:Work>
    <dc:type rdf:resource="http://purl.org/dc/dcmitype/StillImage"/>
    <dc:date>2026-09-25T17:32:09.517112</dc:date>
    <dc:format>image/svg+xml</dc:format>
    <dc:creator>
     <cc:Agent>
      <dc:title>Matplotlib v3.11.2, https://matplotlib.org/</dc:title>
     </cc:Agent>
    </dc:creator>
   </cc:Work>
  </rdf:RDF>
 </metadata>
 <defs>
  <style type="text/css">*{stroke-linejoin: round; stroke-linecap: butt}</style>
 </defs>
 <g id="figure_1">
  <g id="patch_1">
   <path d="M 0 449.16375
L 513.72 449.16375
L 513.72 0
L 0 0
z
" style="fill: #ffffff"/>
  </g>
  <g id="axes_1">
   <g id="line2d_1">
    <path d="M 32.191579 118.246957
L 32.191579 68.752696
" clip-path="url(#p1801d34aef)" style="fill: none; stroke: #d55e00; stroke-width: 4; stroke-linecap: square"/>
   </g>
   <g id="line2d_2">
    <path d="M 32.191579 131.745391
L 32.191579 118.246957
" clip-path="url(#p1801d34aef)" style="fill: none; stroke: #859199; stroke-linecap: square"/>
   </g>
   <g id="line2d_3">
    <path d="M 164.349474 118.246957
L 164.349474 68.752696
" clip-path="url(#p1801d34aef)" style="fill: none; stroke: #d55e00; stroke-width: 4; stroke-linecap: square"/>
   </g>
   <g id="line2d_4">
    <path d="M 164.349474 131.745391
L 164.349474 118.246957
" clip-path="url(#p1801d34aef)" style="fill: none; stroke: #859199; stroke-linecap: square"/>
   </g>
   <g id="line2d_5">
    <path d="M 21.618947 131.745391
L 174.922105 131.745391
" clip-path="url(#p1801d34aef)" style="fill: none; stroke: #859199; stroke-width: 0.8; stroke-linecap: square"/>
   </g>
   <g id="line2d_6">
    <path d="M 270.075789 118.246957
L 320.434711 93.499826
" clip-path="url(#p1801d34aef)" style="fill: none; stroke: #0072b2; stroke-width: 4; stroke-linecap: square"/>
   </g>
   <g id="line2d_7">
    <path d="M 270.075789 131.745391
L 270.075789 118.246957
" clip-path="url(#p1801d34aef)" style="fill: none; stroke: #859199; stroke-linecap: square"/>
   </g>
   <g id="line2d_8">
    <path d="M 426.161027 118.246957
L 476.519948 93.499826
" clip-path="url(#p1801d34aef)" style="fill: none; stroke: #0072b2; stroke-width: 4; stroke-linecap: square"/>
   </g>
   <g id="line2d_9">
    <path d="M 426.161027 131.745391
L 426.161027 118.246957
" clip-path="url(#p1801d34aef)" style="fill: none; stroke: #859199; stroke-linecap: square"/>
   </g>
   <g id="line2d_10">
    <path d="M 259.503158 131.745391
L 487.09258 131.745391
" clip-path="url(#p1801d34aef)" style="fill: none; stroke: #859199; stroke-width: 0.8; stroke-linecap: square"/>
   </g>
   <g id="patch_2">
    <path d="M 161.235036 142.994087
Q 98.271336 142.994087 35.307636 142.994087
" style="fill: none; stroke: #000000; stroke-linecap: round"/>
    <path d="M 157.835036 141.294087
L 161.235036 142.994087
L 157.835036 144.694087
" style="fill: none; stroke: #000000; stroke-linecap: round"/>
    <path d="M 38.707636 144.694087
L 35.307636 142.994087
L 38.707636 141.294087
" style="fill: none; stroke: #000000; stroke-linecap: round"/>
   </g>
   <g id="text_1">
    <text style="font-size: 8.5px; font-family: 'Arial', 'DejaVu Sans'; text-anchor: middle" x="98.270526" y="156.492522" transform="rotate(-0 98.270526 156.492522)">Pitch 2.500 m</text>
   </g>
   <g id="text_2">
    <text style="font-size: 12px; font-family: 'Arial', 'DejaVu Sans'; text-anchor: middle; fill: #d55e00" x="98.270526" y="37.256348" transform="rotate(-0 98.270526 37.256348)">Vertical bifacial</text>
   </g>
   <g id="patch_3">
    <path d="M 423.047152 142.994087
Q 348.119755 142.994087 273.192358 142.994087
" style="fill: none; stroke: #000000; stroke-linecap: round"/>
    <path d="M 419.647152 141.294087
L 423.047152 142.994087
L 419.647152 144.694087
" style="fill: none; stroke: #000000; stroke-linecap: round"/>
    <path d="M 276.592358 144.694087
L 273.192358 142.994087
L 276.592358 141.294087
" style="fill: none; stroke: #000000; stroke-linecap: round"/>
   </g>
   <g id="text_3">
    <text style="font-size: 8.5px; font-family: 'Arial', 'DejaVu Sans'; text-anchor: middle" x="348.118408" y="156.492522" transform="rotate(-0 348.118408 156.492522)">Pitch 2.953 m</text>
   </g>
   <g id="text_4">
    <text style="font-size: 12px; font-family: 'Arial', 'DejaVu Sans'; text-anchor: middle; fill: #0072b2" x="348.118408" y="37.256348" transform="rotate(-0 348.118408 37.256348)">Tilted monofacial</text>
   </g>
   <g id="text_5">
    <text style="font-weight: 700; font-size: 8.5px; font-family: 'Arial', 'DejaVu Sans'; text-anchor: middle" x="222.498947" y="12.509217" transform="rotate(-0 222.498947 12.509217)">Same lower edge: 0.30 m | Same clear aisle: 2.00 m</text>
   </g>
  </g>
  <g id="axes_2">
   <g id="patch_4">
    <path d="M 10.782 292.9392
L 151.398 292.9392
L 151.398 254.1312
L 10.782 254.1312
z
" clip-path="url(#p3626bc1915)" style="fill: #f3f7f9; stroke: #0072b2; stroke-width: 0.8; stroke-linejoin: miter"/>
   </g>
   <g id="patch_5">
    <path d="M 186.552 292.9392
L 322.146 292.9392
L 322.146 254.1312
L 186.552 254.1312
z
" clip-path="url(#p3626bc1915)" style="fill: #f3f7f9; stroke: #0072b2; stroke-width: 0.8; stroke-linejoin: miter"/>
   </g>
   <g id="patch_6">
    <path d="M 362.322 292.9392
L 502.938 292.9392
L 502.938 254.1312
L 362.322 254.1312
z
" clip-path="url(#p3626bc1915)" style="fill: #f3f7f9; stroke: #0072b2; stroke-width: 0.8; stroke-linejoin: miter"/>
   </g>
   <g id="patch_7">
    <path d="M 10.782 382.1976
L 151.398 382.1976
L 151.398 343.3896
L 10.782 343.3896
z
" clip-path="url(#p3626bc1915)" style="fill: #f3f7f9; stroke: #0072b2; stroke-width: 0.8; stroke-linejoin: miter"/>
   </g>
   <g id="patch_8">
    <path d="M 186.552 382.1976
L 322.146 382.1976
L 322.146 343.3896
L 186.552 343.3896
z
" clip-path="url(#p3626bc1915)" style="fill: #f3f7f9; stroke: #0072b2; stroke-width: 0.8; stroke-linejoin: miter"/>
   </g>
   <g id="patch_9">
    <path d="M 362.322 382.1976
L 502.938 382.1976
L 502.938 343.3896
L 362.322 343.3896
z
" clip-path="url(#p3626bc1915)" style="fill: #f3f7f9; stroke: #0072b2; stroke-width: 0.8; stroke-linejoin: miter"/>
   </g>
   <g id="text_6">
    <text style="font-weight: 700; font-size: 10px; font-family: 'Arial', 'DejaVu Sans'; text-anchor: middle" x="81.09" y="266.93784" transform="rotate(-0 81.09 266.93784)">Shared geometry + TMY</text>
   </g>
   <g id="text_7">
    <text style="font-size: 8.5px; font-family: 'Arial', 'DejaVu Sans'; text-anchor: middle" x="81.09" y="282.46104" transform="rotate(-0 81.09 282.46104)">No weeds / snow</text>
   </g>
   <g id="text_8">
    <text style="font-weight: 700; font-size: 10px; font-family: 'Arial', 'DejaVu Sans'; text-anchor: middle" x="254.349" y="266.93784" transform="rotate(-0 254.349 266.93784)">pvlib hourly AC</text>
   </g>
   <g id="text_9">
    <text style="font-size: 8.5px; font-family: 'Arial', 'DejaVu Sans'; text-anchor: middle" x="254.349" y="282.46104" transform="rotate(-0 254.349 282.46104)">Clean energy + height sweep</text>
   </g>
   <g id="text_10">
    <text style="font-weight: 700; font-size: 10px; font-family: 'Arial', 'DejaVu Sans'; text-anchor: middle" x="432.63" y="266.93784" transform="rotate(-0 432.63 266.93784)">ESS / cost screening</text>
   </g>
   <g id="text_11">
    <text style="font-size: 8.5px; font-family: 'Arial', 'DejaVu Sans'; text-anchor: middle" x="432.63" y="282.46104" transform="rotate(-0 432.63 282.46104)">Equipment aging; clean PV</text>
   </g>
   <g id="text_12">
    <text style="font-weight: 700; font-size: 10px; font-family: 'Arial', 'DejaVu Sans'; text-anchor: middle" x="81.09" y="356.19624" transform="rotate(-0 81.09 356.19624)">Warp GPU</text>
   </g>
   <g id="text_13">
    <text style="font-size: 8.5px; font-family: 'Arial', 'DejaVu Sans'; text-anchor: middle" x="81.09" y="371.71944" transform="rotate(-0 81.09 371.71944)">Dry + rain first-hit tracing</text>
   </g>
   <g id="text_14">
    <text style="font-weight: 700; font-size: 10px; font-family: 'Arial', 'DejaVu Sans'; text-anchor: middle" x="254.349" y="356.19624" transform="rotate(-0 254.349 356.19624)">Persistent dust pools</text>
   </g>
   <g id="text_15">
    <text style="font-size: 8.5px; font-family: 'Arial', 'DejaVu Sans'; text-anchor: middle" x="254.349" y="371.71944" transform="rotate(-0 254.349 371.71944)">Assumed rain wash-off</text>
   </g>
   <g id="text_16">
    <text style="font-weight: 700; font-size: 10px; font-family: 'Arial', 'DejaVu Sans'; text-anchor: middle" x="432.63" y="356.19624" transform="rotate(-0 432.63 356.19624)">10-year optical losses</text>
   </g>
   <g id="text_17">
    <text style="font-size: 8.5px; font-family: 'Arial', 'DejaVu Sans'; text-anchor: middle" x="432.63" y="371.71944" transform="rotate(-0 432.63 371.71944)">HSU domain checked</text>
   </g>
   <g id="patch_10">
    <path d="M 153.402018 273.5352
Q 168.975469 273.5352 183.430885 273.5352
" style="fill: none; stroke: #859199; stroke-linecap: round"/>
    <path d="M 180.030885 271.8352
L 183.430885 273.5352
L 180.030885 275.2352
" style="fill: none; stroke: #859199; stroke-linecap: round"/>
   </g>
   <g id="patch_11">
    <path d="M 324.142049 273.5352
Q 342.232317 273.5352 359.204552 273.5352
" style="fill: none; stroke: #859199; stroke-linecap: round"/>
    <path d="M 355.804552 271.8352
L 359.204552 273.5352
L 355.804552 275.2352
" style="fill: none; stroke: #859199; stroke-linecap: round"/>
   </g>
   <g id="patch_12">
    <path d="M 81.09 294.937632
Q 81.09 318.162579 81.09 340.269492
" style="fill: none; stroke: #859199; stroke-linecap: round"/>
    <path d="M 82.79 336.869492
L 81.09 340.269492
L 79.39 336.869492
" style="fill: none; stroke: #859199; stroke-linecap: round"/>
   </g>
   <g id="patch_13">
    <path d="M 153.402018 362.7936
Q 168.975469 362.7936 183.430885 362.7936
" style="fill: none; stroke: #859199; stroke-linecap: round"/>
    <path d="M 180.030885 361.0936
L 183.430885 362.7936
L 180.030885 364.4936
" style="fill: none; stroke: #859199; stroke-linecap: round"/>
   </g>
   <g id="patch_14">
    <path d="M 324.142049 362.7936
Q 342.232317 362.7936 359.204552 362.7936
" style="fill: none; stroke: #859199; stroke-linecap: round"/>
    <path d="M 355.804552 361.0936
L 359.204552 362.7936
L 355.804552 364.4936
" style="fill: none; stroke: #859199; stroke-linecap: round"/>
   </g>
   <g id="patch_15">
    <path d="M 258.758882 293.575065
Q 332.192887 318.165367 404.566719 342.400656
" style="fill: none; stroke: #859199; stroke-linecap: round"/>
    <path d="M 401.882483 339.709025
L 404.566719 342.400656
L 400.802872 342.933066
" style="fill: none; stroke: #859199; stroke-linecap: round"/>
   </g>
  </g>
  <g id="text_18">
   <text style="font-size: 8px; font-family: 'Arial', 'DejaVu Sans'; text-anchor: middle" x="248.76" y="441.72" transform="rotate(-0 248.76 441.72)">Annual clean yield, assumed soiling loss and financial screening have distinct outputs; no field validation.</text>
  </g>
 </g>
 <defs>
  <clipPath id="p1801d34aef">
   <rect x="5.76" y="5.76" width="502.2" height="155.232"/>
  </clipPath>
  <clipPath id="p3626bc1915">
   <rect x="5.76" y="238.608" width="502.2" height="155.232"/>
  </clipPath>
 </defs>
</svg>
